<?xml version="1.0" encoding="UTF-8"?>
<svg xmlns="http://www.w3.org/2000/svg" viewBox="0 0 1024 1536" width="1024" height="1536">
  <defs>
    <linearGradient id="bg" x1="0" y1="0" x2="0" y2="1">
      <stop offset="0%" stop-color="#000000"/>
      <stop offset="100%" stop-color="#1a1a1a"/>
    </linearGradient>
    <linearGradient id="orangeBand" x1="0" y1="0" x2="1" y2="0">
      <stop offset="0%" stop-color="#f7931a"/>
      <stop offset="100%" stop-color="#facc15"/>
    </linearGradient>
    <linearGradient id="cardGrad" x1="0" y1="0" x2="0" y2="1">
      <stop offset="0%" stop-color="#181818"/>
      <stop offset="100%" stop-color="#101010"/>
    </linearGradient>
    <style>
      text { font-family: "Helvetica Neue", "Inter", "Segoe UI", Arial, sans-serif; }
      .tag { font-size: 18px; font-weight: 700; letter-spacing: 4px; fill: #f7931a; }
      .title { font-size: 50px; font-weight: 900; letter-spacing: 1px; fill: #ffffff; }
      .subtitle { font-size: 22px; font-style: italic; fill: #facc15; }
      .lead { font-size: 17px; fill: #cfcfcf; }
      .card-name { font-size: 22px; font-weight: 700; fill: #f7931a; }
      .card-abbrev { font-size: 11px; font-weight: 700; letter-spacing: 2px; fill: #888; }
      .card-does { font-size: 14px; fill: #ececec; }
      .card-fails { font-size: 12px; fill: #ef6b6b; }
      .card-num { font-size: 30px; font-weight: 900; fill: #1a1a1a; }
      .arc-chip { font-size: 14px; font-weight: 700; fill: #ffffff; letter-spacing: 1px; }
      .arc-cap { font-size: 13px; font-style: italic; fill: #aaaaaa; }
      .miscon-head { font-size: 13px; font-weight: 700; letter-spacing: 4px; fill: #888; }
      .miscon-wrong { font-size: 14px; font-style: italic; fill: #ef4444; }
      .miscon-better { font-size: 14px; fill: #dddddd; }
      .miscon-mark { font-size: 16px; font-weight: 900; }
      .key-lesson { font-size: 22px; font-weight: 800; fill: #1a1a1a; letter-spacing: 0.5px; }
      .footer { font-size: 12px; fill: #888; letter-spacing: 1.5px; }
      .ill-label { font-size: 10px; font-weight: 700; letter-spacing: 1.5px; fill: #555; }
      .ill-id { font-size: 8px; fill: #444; }
    </style>
  </defs>

  <rect width="1024" height="1536" fill="url(#bg)"/>

  <!-- Header band -->
  <rect x="0" y="0" width="1024" height="3" fill="url(#orangeBand)"/>
  <text x="60" y="62" class="tag">FUNDAMENTO 2 DE 5</text>

  <text x="60" y="122" class="title" font-size="44">ANATOMÍA DE UNA BILLETERA</text>
  <text x="60" y="170" class="title" font-size="44">BITCOIN</text>

  <text x="60" y="208" class="subtitle">Una billetera no es una sola cosa. Es un pequeño sistema que</text>
  <text x="60" y="236" class="subtitle">hace cinco trabajos a la vez.</text>

  <text x="60" y="264" class="lead">Una billetera Bitcoin es software (o hardware) que guarda las piezas que necesitas</text>
  <text x="60" y="286" class="lead">para probar la propiedad y mover bitcoin. Ábrela y encontrarás cinco componentes —</text>
  <text x="60" y="308" class="lead">cada uno con un trabajo distinto.</text>

  <line x1="60" y1="324" x2="964" y2="324" stroke="#2a2a2a" stroke-width="1"/>

  <!-- 5 component cards: number · illustration · text -->
  <g transform="translate(60, 342)">
    <rect width="904" height="130" rx="14" fill="url(#cardGrad)" stroke="#2a2a2a" stroke-width="1"/>

    <!-- Numbered orange disc (far left) -->
    <circle cx="58" cy="65" r="30" fill="url(#orangeBand)"/>
    <text x="58" y="76" text-anchor="middle" class="card-num">1</text>

    <!-- Illustration (left of text, 100x100) -->
    <g transform="translate(110, 15)">
      <rect width="100" height="100" rx="12" fill="#0a0a0a" stroke="#262626" stroke-width="1"/>
      <!-- Random number generator: a tilted die showing all sides scattered with dots -->
  <defs>
    <linearGradient id="rngFace" x1="0" y1="0" x2="1" y2="1">
      <stop offset="0%" stop-color="#1a1a1a"/>
      <stop offset="100%" stop-color="#0a0a0a"/>
    </linearGradient>
  </defs>
  <g transform="translate(50 52)">
    <!-- top face -->
    <polygon points="0,-26 24,-14 0,-2 -24,-14" fill="#181818" stroke="#f7931a" stroke-width="1.6"/>
    <!-- left face -->
    <polygon points="-24,-14 0,-2 0,26 -24,14" fill="url(#rngFace)" stroke="#f7931a" stroke-width="1.6"/>
    <!-- right face -->
    <polygon points="24,-14 0,-2 0,26 24,14" fill="#0e0e0e" stroke="#f7931a" stroke-width="1.6"/>
    <!-- pips on top face: scattered (entropy) -->
    <circle cx="-10" cy="-15" r="1.8" fill="#f7931a"/>
    <circle cx="6" cy="-12" r="1.8" fill="#f7931a"/>
    <circle cx="-2" cy="-8" r="1.8" fill="#f7931a"/>
    <!-- pips on left face: 2 -->
    <circle cx="-16" cy="-2" r="1.6" fill="#facc15"/>
    <circle cx="-8" cy="14" r="1.6" fill="#facc15"/>
    <!-- pips on right face: 3 -->
    <circle cx="6" cy="2" r="1.6" fill="#facc15"/>
    <circle cx="14" cy="6" r="1.6" fill="#facc15"/>
    <circle cx="10" cy="14" r="1.6" fill="#facc15"/>
  </g>
    </g>

    <!-- Text -->
    <text x="230" y="36" class="card-name">Generador de números aleatorios</text>
    <text x="230" y="55" class="card-abbrev">RNG</text>
    <text x="230" y="82" class="card-does">Produce la entropía que se convierte en la semilla.</text>
    <text x="230" y="102" class="card-fails">Si falla: Un RNG débil hace que la semilla sea adivinable desde el día uno. Todo lo</text>
    <text x="230" y="116" class="card-fails">construido encima queda comprometido.</text>
  </g>
  <g transform="translate(60, 484)">
    <rect width="904" height="130" rx="14" fill="url(#cardGrad)" stroke="#2a2a2a" stroke-width="1"/>

    <!-- Numbered orange disc (far left) -->
    <circle cx="58" cy="65" r="30" fill="url(#orangeBand)"/>
    <text x="58" y="76" text-anchor="middle" class="card-num">2</text>

    <!-- Illustration (left of text, 100x100) -->
    <g transform="translate(110, 15)">
      <rect width="100" height="100" rx="12" fill="#0a0a0a" stroke="#262626" stroke-width="1"/>
      <!-- Seed phrase storage: numbered notepad with words -->
  <g transform="translate(50 50)">
    <!-- pad backing -->
    <rect x="-30" y="-34" width="60" height="68" rx="4" fill="#0e0e0e" stroke="#f7931a" stroke-width="1.6"/>
    <!-- top binding -->
    <line x1="-26" y1="-30" x2="26" y2="-30" stroke="#f7931a" stroke-width="0.8" stroke-dasharray="2 2"/>
    <!-- 6 word lines with row numbers -->
    <g font-family="Helvetica Neue, Arial, sans-serif" font-size="6" fill="#facc15">
      <text x="-23" y="-18">1</text>
      <text x="-23" y="-7">2</text>
      <text x="-23" y="4">3</text>
      <text x="-23" y="15">4</text>
      <text x="-23" y="26">5</text>
    </g>
    <line x1="-15" y1="-19" x2="22" y2="-19" stroke="#f7931a" stroke-width="1.4" stroke-linecap="round"/>
    <line x1="-15" y1="-8" x2="18" y2="-8" stroke="#f7931a" stroke-width="1.4" stroke-linecap="round"/>
    <line x1="-15" y1="3" x2="22" y2="3" stroke="#f7931a" stroke-width="1.4" stroke-linecap="round"/>
    <line x1="-15" y1="14" x2="14" y2="14" stroke="#f7931a" stroke-width="1.4" stroke-linecap="round"/>
    <line x1="-15" y1="25" x2="20" y2="25" stroke="#f7931a" stroke-width="1.4" stroke-linecap="round"/>
  </g>
    </g>

    <!-- Text -->
    <text x="230" y="36" class="card-name">Almacenamiento de la semilla</text>
    <text x="230" y="55" class="card-abbrev">BIP39</text>
    <text x="230" y="82" class="card-does">Convierte la entropía + checksum en 12 o 24 palabras legibles.</text>
    <text x="230" y="100" class="card-does">El respaldo humano.</text>
    <text x="230" y="120" class="card-fails">Si falla: Pierde la frase semilla y pierdes todas las claves que la billetera derive.</text>
  </g>
  <g transform="translate(60, 626)">
    <rect width="904" height="130" rx="14" fill="url(#cardGrad)" stroke="#2a2a2a" stroke-width="1"/>

    <!-- Numbered orange disc (far left) -->
    <circle cx="58" cy="65" r="30" fill="url(#orangeBand)"/>
    <text x="58" y="76" text-anchor="middle" class="card-num">3</text>

    <!-- Illustration (left of text, 100x100) -->
    <g transform="translate(110, 15)">
      <rect width="100" height="100" rx="12" fill="#0a0a0a" stroke="#262626" stroke-width="1"/>
      <!-- Key derivation: hierarchical tree (one root, branches multiply) -->
  <g transform="translate(50 50)">
    <!-- branches as connecting paths -->
    <g stroke="#f7931a" stroke-width="1.6" fill="none" stroke-linecap="round">
      <!-- root → 2 children -->
      <path d="M 0 -32 L -18 -10"/>
      <path d="M 0 -32 L 18 -10"/>
      <!-- left child → 2 grandchildren -->
      <path d="M -18 -10 L -28 12"/>
      <path d="M -18 -10 L -10 12"/>
      <!-- right child → 2 grandchildren -->
      <path d="M 18 -10 L 10 12"/>
      <path d="M 18 -10 L 28 12"/>
      <!-- leaves: a couple of greatgrandchildren on outermost -->
      <path d="M -28 12 L -32 28"/>
      <path d="M -28 12 L -22 28"/>
      <path d="M 28 12 L 22 28"/>
      <path d="M 28 12 L 32 28"/>
    </g>
    <!-- nodes -->
    <circle cx="0" cy="-32" r="4.5" fill="#facc15" stroke="#f7931a" stroke-width="1"/>
    <circle cx="-18" cy="-10" r="3.5" fill="#f7931a"/>
    <circle cx="18" cy="-10" r="3.5" fill="#f7931a"/>
    <circle cx="-28" cy="12" r="2.6" fill="#f7931a"/>
    <circle cx="-10" cy="12" r="2.6" fill="#f7931a"/>
    <circle cx="10" cy="12" r="2.6" fill="#f7931a"/>
    <circle cx="28" cy="12" r="2.6" fill="#f7931a"/>
    <circle cx="-32" cy="28" r="1.8" fill="#facc15"/>
    <circle cx="-22" cy="28" r="1.8" fill="#facc15"/>
    <circle cx="22" cy="28" r="1.8" fill="#facc15"/>
    <circle cx="32" cy="28" r="1.8" fill="#facc15"/>
  </g>
    </g>

    <!-- Text -->
    <text x="230" y="36" class="card-name">Motor de derivación de claves</text>
    <text x="230" y="55" class="card-abbrev">BIP32</text>
    <text x="230" y="82" class="card-does">Convierte una semilla en un árbol de claves privadas. Una</text>
    <text x="230" y="100" class="card-does">semilla → millones de claves.</text>
    <text x="230" y="120" class="card-fails">Si falla: Las mismas 12 palabras con rutas de derivación distintas &#x3D; billeteras</text>
    <text x="230" y="134" class="card-fails">distintas. No es contradicción, es configuración.</text>
  </g>
  <g transform="translate(60, 768)">
    <rect width="904" height="130" rx="14" fill="url(#cardGrad)" stroke="#2a2a2a" stroke-width="1"/>

    <!-- Numbered orange disc (far left) -->
    <circle cx="58" cy="65" r="30" fill="url(#orangeBand)"/>
    <text x="58" y="76" text-anchor="middle" class="card-num">4</text>

    <!-- Illustration (left of text, 100x100) -->
    <g transform="translate(110, 15)">
      <rect width="100" height="100" rx="12" fill="#0a0a0a" stroke="#262626" stroke-width="1"/>
      <!-- Signing: pen tip drawing a signature; key motif at right -->
  <g transform="translate(50 50)">
    <!-- signature loop -->
    <path d="M -34 12 Q -26 -6 -18 6 Q -10 18 -2 -2 Q 6 -18 14 6"
          fill="none" stroke="#f7931a" stroke-width="2.2" stroke-linecap="round"/>
    <!-- signature underline (dashed) -->
    <line x1="-34" y1="22" x2="22" y2="22" stroke="#facc15" stroke-width="1.2" stroke-linecap="round" stroke-dasharray="2 3"/>
    <!-- pen body -->
    <g transform="rotate(-35 14 -8)">
      <rect x="14" y="-14" width="22" height="6" rx="1" fill="#1a1a1a" stroke="#f7931a" stroke-width="1.4"/>
      <polygon points="36,-14 44,-11 36,-8" fill="#f7931a"/>
    </g>
    <!-- key motif -->
    <g transform="translate(20 -28)">
      <circle cx="0" cy="0" r="5" fill="none" stroke="#facc15" stroke-width="1.6"/>
      <line x1="5" y1="0" x2="14" y2="0" stroke="#facc15" stroke-width="1.6"/>
      <line x1="11" y1="0" x2="11" y2="3" stroke="#facc15" stroke-width="1.6"/>
      <line x1="14" y1="0" x2="14" y2="4" stroke="#facc15" stroke-width="1.6"/>
    </g>
  </g>
    </g>

    <!-- Text -->
    <text x="230" y="36" class="card-name">Motor de firma</text>
    <text x="230" y="55" class="card-abbrev">ECDSA / Schnorr</text>
    <text x="230" y="82" class="card-does">Usa una clave privada para firmar una transacción. Prueba que</text>
    <text x="230" y="100" class="card-does">tienes derecho a gastar.</text>
    <text x="230" y="120" class="card-fails">Si falla: La billetera lee saldos pero no puede mover fondos.</text>
  </g>
  <g transform="translate(60, 910)">
    <rect width="904" height="130" rx="14" fill="url(#cardGrad)" stroke="#2a2a2a" stroke-width="1"/>

    <!-- Numbered orange disc (far left) -->
    <circle cx="58" cy="65" r="30" fill="url(#orangeBand)"/>
    <text x="58" y="76" text-anchor="middle" class="card-num">5</text>

    <!-- Illustration (left of text, 100x100) -->
    <g transform="translate(110, 15)">
      <rect width="100" height="100" rx="12" fill="#0a0a0a" stroke="#262626" stroke-width="1"/>
      <!-- Network interface: broadcasting node connected to peers + radio waves -->
  <g transform="translate(50 50)">
    <!-- outer wave -->
    <path d="M -32 -10 A 34 34 0 0 1 32 -10" fill="none" stroke="#f7931a" stroke-width="1.4" stroke-dasharray="3 3"/>
    <!-- mid wave -->
    <path d="M -22 -8 A 24 24 0 0 1 22 -8" fill="none" stroke="#facc15" stroke-width="1.4"/>
    <!-- inner wave -->
    <path d="M -12 -6 A 14 14 0 0 1 12 -6" fill="none" stroke="#f7931a" stroke-width="1.4"/>
    <!-- center node (broadcasting) -->
    <circle cx="0" cy="0" r="4.5" fill="#facc15" stroke="#f7931a" stroke-width="1.4"/>
    <!-- peer nodes around the bottom -->
    <line x1="0" y1="0" x2="-26" y2="22" stroke="#f7931a" stroke-width="1.2"/>
    <line x1="0" y1="0" x2="26" y2="22" stroke="#f7931a" stroke-width="1.2"/>
    <line x1="0" y1="0" x2="0" y2="28" stroke="#f7931a" stroke-width="1.2"/>
    <circle cx="-26" cy="22" r="3.2" fill="#f7931a"/>
    <circle cx="26" cy="22" r="3.2" fill="#f7931a"/>
    <circle cx="0" cy="28" r="3.2" fill="#f7931a"/>
    <!-- horizontal connection between peers -->
    <line x1="-26" y1="22" x2="0" y2="28" stroke="#f7931a" stroke-width="0.8" stroke-dasharray="1.5 1.5"/>
    <line x1="0" y1="28" x2="26" y2="22" stroke="#f7931a" stroke-width="0.8" stroke-dasharray="1.5 1.5"/>
  </g>
    </g>

    <!-- Text -->
    <text x="230" y="36" class="card-name">Interfaz de red</text>
    <text x="230" y="55" class="card-abbrev">P2P</text>
    <text x="230" y="82" class="card-does">Difunde transacciones firmadas, consulta saldos, observa</text>
    <text x="230" y="100" class="card-does">direcciones para pagos entrantes.</text>
    <text x="230" y="120" class="card-fails">Si falla: La billetera puede firmar pero no transmitir. Intencional en dispositivos de</text>
    <text x="230" y="134" class="card-fails">firma aislados (air-gapped).</text>
  </g>

  <!-- Derivation arc -->
  <g transform="translate(0, 1062)">
    <g transform="translate(135, 0)">
      <rect width="130" height="40" rx="20" fill="rgba(247,147,26,0.12)" stroke="#f7931a" stroke-width="1.5"/>
      <text x="65" y="26" text-anchor="middle" class="arc-chip">RNG</text>
    </g>
    <g transform="translate(291, 0)">
      <rect width="130" height="40" rx="20" fill="rgba(247,147,26,0.12)" stroke="#f7931a" stroke-width="1.5"/>
      <text x="65" y="26" text-anchor="middle" class="arc-chip">Semilla</text>
    </g>
    <g transform="translate(447, 0)">
      <rect width="130" height="40" rx="20" fill="rgba(247,147,26,0.12)" stroke="#f7931a" stroke-width="1.5"/>
      <text x="65" y="26" text-anchor="middle" class="arc-chip">Árbol</text>
    </g>
    <g transform="translate(603, 0)">
      <rect width="130" height="40" rx="20" fill="rgba(247,147,26,0.12)" stroke="#f7931a" stroke-width="1.5"/>
      <text x="65" y="26" text-anchor="middle" class="arc-chip">Firma</text>
    </g>
    <g transform="translate(759, 0)">
      <rect width="130" height="40" rx="20" fill="rgba(247,147,26,0.12)" stroke="#f7931a" stroke-width="1.5"/>
      <text x="65" y="26" text-anchor="middle" class="arc-chip">Red</text>
    </g>
    <line x1="267" y1="20" x2="285" y2="20" stroke="#f7931a" stroke-width="2"/>
    <polygon points="285,20 277,14 277,26" fill="#f7931a"/>
    <line x1="423" y1="20" x2="441" y2="20" stroke="#f7931a" stroke-width="2"/>
    <polygon points="441,20 433,14 433,26" fill="#f7931a"/>
    <line x1="579" y1="20" x2="597" y2="20" stroke="#f7931a" stroke-width="2"/>
    <polygon points="597,20 589,14 589,26" fill="#f7931a"/>
    <line x1="735" y1="20" x2="753" y2="20" stroke="#f7931a" stroke-width="2"/>
    <polygon points="753,20 745,14 745,26" fill="#f7931a"/>
  </g>

  <text x="512" y="1128" text-anchor="middle" class="arc-cap">Cinco trabajos en una cadena. La aleatoriedad fuerte se convierte en respaldo, en árbol de</text>
  <text x="512" y="1146" text-anchor="middle" class="arc-cap">claves, en firma, en transacción. Cada paso depende del anterior.</text>

  <!-- Misconceptions -->
  <text x="60" y="1176" class="miscon-head">ERRORES COMUNES</text>
  <g transform="translate(60, 1194)">
    <text x="0" y="14" class="miscon-mark" fill="#ef4444">✗</text>
    <text x="22" y="14" class="miscon-wrong">"Mi billetera guarda mi bitcoin."</text>
    <text x="0" y="36" class="miscon-mark" fill="#22c55e">✓</text>
    <text x="22" y="36" class="miscon-better">El bitcoin vive en la red. Tu billetera guarda las claves que te permiten moverlo.</text>
  </g>
  <g transform="translate(60, 1250)">
    <text x="0" y="14" class="miscon-mark" fill="#ef4444">✗</text>
    <text x="22" y="14" class="miscon-wrong">"Caliente vs. frío es la única distinción de seguridad que importa."</text>
    <text x="0" y="36" class="miscon-mark" fill="#22c55e">✓</text>
    <text x="22" y="36" class="miscon-better">Los componentes importan más. Una billetera fría con un RNG débil no es segura; una</text>
    <text x="22" y="52" class="miscon-better">caliente con buen aislamiento de claves puede ser más segura de lo que crees.</text>
  </g>
  <g transform="translate(60, 1306)">
    <text x="0" y="14" class="miscon-mark" fill="#ef4444">✗</text>
    <text x="22" y="14" class="miscon-wrong">"Todas las billeteras de 12 palabras son equivalentes."</text>
    <text x="0" y="36" class="miscon-mark" fill="#22c55e">✓</text>
    <text x="22" y="36" class="miscon-better">Distintas billeteras usan distintas rutas de derivación, tipos de dirección y modelos de</text>
    <text x="22" y="52" class="miscon-better">passphrase. Mismas palabras ≠ misma billetera.</text>
  </g>
  <g transform="translate(60, 1362)">
    <text x="0" y="14" class="miscon-mark" fill="#ef4444">✗</text>
    <text x="22" y="14" class="miscon-wrong">"La contraseña de mi billetera protege mi bitcoin."</text>
    <text x="0" y="36" class="miscon-mark" fill="#22c55e">✓</text>
    <text x="22" y="36" class="miscon-better">La contraseña protege el acceso al software de billetera en un dispositivo. La frase</text>
    <text x="22" y="52" class="miscon-better">semilla protege el bitcoin a través de todos los dispositivos, todo el tiempo.</text>
  </g>

  <!-- Key lesson band -->
  <g transform="translate(0, 1416)">
    <rect width="1024" height="60" fill="url(#orangeBand)"/>
    <text x="512" y="38" text-anchor="middle" class="key-lesson">Cinco partes. Un trabajo: probar que puedes mover bitcoin sin revelar cómo.</text>
  </g>

  <!-- Footer with logo -->
  <g transform="translate(60, 1476)">
    <g transform="translate(0, 4) scale(0.20)">
      <title id="t">Bitcoin Sovereign Academy — Dalia signature mark</title>
  <defs>
    <linearGradient id="dL" x1="0%" y1="0%" x2="100%" y2="0%">
      <stop offset="0%" stop-color="#2a2a2a"/>
      <stop offset="100%" stop-color="#0f0f0f"/>
    </linearGradient>
    <linearGradient id="dR" x1="0%" y1="0%" x2="100%" y2="0%">
      <stop offset="0%" stop-color="#0f0f0f"/>
      <stop offset="100%" stop-color="#262626"/>
    </linearGradient>
    <linearGradient id="g" x1="0%" y1="100%" x2="100%" y2="0%">
      <stop offset="0%" stop-color="#f7931a"/>
      <stop offset="100%" stop-color="#facc15"/>
    </linearGradient>
  </defs>
  <polygon points="50,7.8 50,92.2 8.4,50.3" fill="url(#dL)"/>
  <polygon points="50,7.8 50,92.2 91.6,49.7" fill="url(#dR)"/>
  <path d="M 22.4 42.3 Q 48 36.2 73.7 30.1" stroke="url(#g)" stroke-width="3.8" stroke-linecap="round" fill="none"/>
    </g>
    <text x="44" y="22" class="footer">Creado por Dalia · bitcoinsovereign.academy</text>
  </g>
</svg>
