<svg xmlns="http://www.w3.org/2000/svg" viewBox="0 0 1800 1000" font-family="Inter, system-ui, -apple-system, BlinkMacSystemFont, sans-serif">
  <defs>
    <linearGradient id="tlBg" x1="0%" y1="0%" x2="0%" y2="100%">
      <stop offset="0%" stop-color="#0B0F14"/>
      <stop offset="100%" stop-color="#141A22"/>
    </linearGradient>
    <radialGradient id="tlHalo" cx="50%" cy="0%" r="60%">
      <stop offset="0%" stop-color="rgba(247,147,26,0.14)"/>
      <stop offset="100%" stop-color="rgba(247,147,26,0)"/>
    </radialGradient>
    <linearGradient id="axisGrad" x1="0%" y1="0%" x2="100%" y2="0%">
      <stop offset="0%" stop-color="rgba(247,147,26,0.4)"/>
      <stop offset="50%" stop-color="rgba(247,147,26,1)"/>
      <stop offset="100%" stop-color="rgba(247,147,26,0.4)"/>
    </linearGradient>
  </defs>

  <rect width="1800" height="1000" fill="url(#tlBg)"/>
  <rect width="1800" height="350" fill="url(#tlHalo)"/>

  <!-- Header -->
  <text x="100" y="80" fill="#F7931A" font-size="14" font-weight="600" letter-spacing="3">THE SOVEREIGN ACADEMY · RESEARCH NOTE</text>
  <text x="100" y="128" fill="#F0EAE0" font-size="38" font-weight="700">The Bitcoin Stack, 2024 — 2026</text>
  <text x="100" y="160" fill="#B4BCC8" font-size="16">Two years of stack maturation: from sBTC and Nakamoto to USDT on Lightning, ZK-rollups, and non-custodial dollar swaps.</text>

  <text x="1700" y="80" text-anchor="end" fill="#6C7684" font-size="11" font-weight="500" letter-spacing="2">FIG · 03</text>
  <text x="1700" y="100" text-anchor="end" fill="#6C7684" font-size="11">Milestones timeline</text>

  <!-- Legend -->
  <g transform="translate(100, 200)">
    <text x="0" y="0" fill="#6C7684" font-size="11" font-weight="600" letter-spacing="2">LAYER LEGEND</text>

    <circle cx="10" cy="22" r="6" fill="#F7931A"/>
    <text x="24" y="26" fill="#F0EAE0" font-size="11">L0 · Base</text>

    <circle cx="110" cy="22" r="6" fill="#FFA94D"/>
    <text x="124" y="26" fill="#F0EAE0" font-size="11">L1 · Assets</text>

    <circle cx="220" cy="22" r="6" fill="#5BA3FF"/>
    <text x="234" y="26" fill="#F0EAE0" font-size="11">L2 · Payments</text>

    <circle cx="345" cy="22" r="6" fill="#8FBEFF"/>
    <text x="359" y="26" fill="#F0EAE0" font-size="11">L2.5 · Federations</text>

    <circle cx="495" cy="22" r="6" fill="#B084FF"/>
    <text x="509" y="26" fill="#F0EAE0" font-size="11">L3 · Programmability</text>

    <circle cx="665" cy="22" r="6" fill="#C9A8FF"/>
    <text x="679" y="26" fill="#F0EAE0" font-size="11">L4 · Fiat bridge</text>
  </g>

  <!-- Time axis -->
  <line x1="120" y1="540" x2="1700" y2="540" stroke="url(#axisGrad)" stroke-width="2.5"/>

  <!-- Quarter markers -->
  <g font-size="11" fill="#6C7684" font-weight="500" letter-spacing="2">
    <g transform="translate(120, 540)">
      <line x1="0" y1="-8" x2="0" y2="8" stroke="#6C7684" stroke-width="1.5"/>
      <text x="0" y="36" text-anchor="middle">Q2 2024</text>
    </g>
    <g transform="translate(345, 540)">
      <line x1="0" y1="-8" x2="0" y2="8" stroke="#6C7684" stroke-width="1.5"/>
      <text x="0" y="36" text-anchor="middle">Q4 2024</text>
    </g>
    <g transform="translate(570, 540)">
      <line x1="0" y1="-8" x2="0" y2="8" stroke="#6C7684" stroke-width="1.5"/>
      <text x="0" y="36" text-anchor="middle">Q2 2025</text>
    </g>
    <g transform="translate(795, 540)">
      <line x1="0" y1="-8" x2="0" y2="8" stroke="#6C7684" stroke-width="1.5"/>
      <text x="0" y="36" text-anchor="middle">Q3 2025</text>
    </g>
    <g transform="translate(1020, 540)">
      <line x1="0" y1="-8" x2="0" y2="8" stroke="#6C7684" stroke-width="1.5"/>
      <text x="0" y="36" text-anchor="middle">Q4 2025</text>
    </g>
    <g transform="translate(1245, 540)">
      <line x1="0" y1="-8" x2="0" y2="8" stroke="#6C7684" stroke-width="1.5"/>
      <text x="0" y="36" text-anchor="middle">Q1 2026</text>
    </g>
    <g transform="translate(1470, 540)">
      <line x1="0" y1="-8" x2="0" y2="8" stroke="#6C7684" stroke-width="1.5"/>
      <text x="0" y="36" text-anchor="middle">Q2 2026</text>
    </g>
    <g transform="translate(1660, 540)">
      <line x1="0" y1="-8" x2="0" y2="8" stroke="#6C7684" stroke-width="1.5"/>
      <text x="0" y="36" text-anchor="middle">Q3 2026 →</text>
    </g>
  </g>

  <!-- Milestones above axis (alternating) -->
  <!-- Apr 2024: Halving -->
  <g>
    <line x1="155" y1="430" x2="155" y2="540" stroke="#F7931A" stroke-width="1.2" stroke-dasharray="3,3" opacity="0.6"/>
    <circle cx="155" cy="540" r="7" fill="#F7931A"/>
    <rect x="80" y="370" width="170" height="58" rx="8" fill="#141A22" stroke="#F7931A" stroke-width="1.2"/>
    <text x="90" y="388" fill="#F7931A" font-size="9" font-weight="700" letter-spacing="2">L0 · APR 2024</text>
    <text x="90" y="406" fill="#F0EAE0" font-size="12" font-weight="600">Halving #4</text>
    <text x="90" y="421" fill="#B4BCC8" font-size="10">Block subsidy → 3.125 BTC</text>
  </g>

  <!-- Sep 2024: Stacks Nakamoto -->
  <g>
    <line x1="320" y1="650" x2="320" y2="540" stroke="#B084FF" stroke-width="1.2" stroke-dasharray="3,3" opacity="0.6"/>
    <circle cx="320" cy="540" r="7" fill="#B084FF"/>
    <rect x="240" y="650" width="180" height="58" rx="8" fill="#141A22" stroke="#B084FF" stroke-width="1.2"/>
    <text x="250" y="668" fill="#B084FF" font-size="9" font-weight="700" letter-spacing="2">L3 · SEP 2024</text>
    <text x="250" y="686" fill="#F0EAE0" font-size="12" font-weight="600">Stacks Nakamoto</text>
    <text x="250" y="701" fill="#B4BCC8" font-size="10">~6s blocks · BTC finality</text>
  </g>

  <!-- Late 2024: sBTC -->
  <g>
    <line x1="430" y1="430" x2="430" y2="540" stroke="#B084FF" stroke-width="1.2" stroke-dasharray="3,3" opacity="0.6"/>
    <circle cx="430" cy="540" r="7" fill="#B084FF"/>
    <rect x="350" y="370" width="180" height="58" rx="8" fill="#141A22" stroke="#B084FF" stroke-width="1.2"/>
    <text x="360" y="388" fill="#B084FF" font-size="9" font-weight="700" letter-spacing="2">L3 · LATE 2024</text>
    <text x="360" y="406" fill="#F0EAE0" font-size="12" font-weight="600">sBTC live on Stacks</text>
    <text x="360" y="421" fill="#B4BCC8" font-size="10">BTC-secured DeFi opens</text>
  </g>

  <!-- Jan 30, 2025: Tether + Lightning Labs partnership -->
  <g>
    <line x1="540" y1="650" x2="540" y2="540" stroke="#FFA94D" stroke-width="1.2" stroke-dasharray="3,3" opacity="0.6"/>
    <circle cx="540" cy="540" r="7" fill="#FFA94D"/>
    <rect x="460" y="650" width="200" height="58" rx="8" fill="#141A22" stroke="#FFA94D" stroke-width="1.2"/>
    <text x="470" y="668" fill="#FFA94D" font-size="9" font-weight="700" letter-spacing="2">L1 · JAN 2025 · PLAN B FORUM</text>
    <text x="470" y="686" fill="#F0EAE0" font-size="12" font-weight="600">Tether + Lightning Labs</text>
    <text x="470" y="701" fill="#B4BCC8" font-size="10">USDT-on-Lightning announced</text>
  </g>

  <!-- Apr 2025: Spark mainnet -->
  <g>
    <line x1="640" y1="430" x2="640" y2="540" stroke="#5BA3FF" stroke-width="1.2" stroke-dasharray="3,3" opacity="0.6"/>
    <circle cx="640" cy="540" r="7" fill="#5BA3FF"/>
    <rect x="560" y="370" width="180" height="58" rx="8" fill="#141A22" stroke="#5BA3FF" stroke-width="1.2"/>
    <text x="570" y="388" fill="#5BA3FF" font-size="9" font-weight="700" letter-spacing="2">L2 · APR 2025</text>
    <text x="570" y="406" fill="#F0EAE0" font-size="12" font-weight="600">Spark L2 mainnet</text>
    <text x="570" y="421" fill="#B4BCC8" font-size="10">Lightspark · LN-compatible</text>
  </g>

  <!-- Mid-2025: Bitlayer BitVM Bridge -->
  <g>
    <line x1="755" y1="650" x2="755" y2="540" stroke="#B084FF" stroke-width="1.2" stroke-dasharray="3,3" opacity="0.6"/>
    <circle cx="755" cy="540" r="7" fill="#B084FF"/>
    <rect x="680" y="650" width="200" height="58" rx="8" fill="#141A22" stroke="#B084FF" stroke-width="1.2"/>
    <text x="690" y="668" fill="#B084FF" font-size="9" font-weight="700" letter-spacing="2">L3 · MID 2025</text>
    <text x="690" y="686" fill="#F0EAE0" font-size="12" font-weight="600">Bitlayer BitVM Bridge</text>
    <text x="690" y="701" fill="#B4BCC8" font-size="10">First trust-min. bridge live</text>
  </g>

  <!-- Jul 2025: Botanix mainnet -->
  <g>
    <line x1="850" y1="430" x2="850" y2="540" stroke="#B084FF" stroke-width="1.2" stroke-dasharray="3,3" opacity="0.6"/>
    <circle cx="850" cy="540" r="7" fill="#B084FF"/>
    <rect x="770" y="370" width="180" height="58" rx="8" fill="#141A22" stroke="#B084FF" stroke-width="1.2"/>
    <text x="780" y="388" fill="#B084FF" font-size="9" font-weight="700" letter-spacing="2">L3 · JUL 2025</text>
    <text x="780" y="406" fill="#F0EAE0" font-size="12" font-weight="600">Botanix mainnet</text>
    <text x="780" y="421" fill="#B4BCC8" font-size="10">Spiderchain · EVM L2</text>
  </g>

  <!-- Aug 2025: USDT on RGB announcement -->
  <g>
    <line x1="950" y1="650" x2="950" y2="540" stroke="#FFA94D" stroke-width="1.2" stroke-dasharray="3,3" opacity="0.6"/>
    <circle cx="950" cy="540" r="7" fill="#FFA94D"/>
    <rect x="870" y="650" width="180" height="58" rx="8" fill="#141A22" stroke="#FFA94D" stroke-width="1.2"/>
    <text x="880" y="668" fill="#FFA94D" font-size="9" font-weight="700" letter-spacing="2">L1 · AUG 2025</text>
    <text x="880" y="686" fill="#F0EAE0" font-size="12" font-weight="600">USDT on RGB</text>
    <text x="880" y="701" fill="#B4BCC8" font-size="10">Tether native to Bitcoin</text>
  </g>

  <!-- Nov 2025: Square Lightning POS rollout -->
  <g>
    <line x1="1050" y1="430" x2="1050" y2="540" stroke="#C9A8FF" stroke-width="1.2" stroke-dasharray="3,3" opacity="0.6"/>
    <circle cx="1050" cy="540" r="7" fill="#C9A8FF"/>
    <rect x="970" y="370" width="200" height="58" rx="8" fill="#141A22" stroke="#C9A8FF" stroke-width="1.2"/>
    <text x="980" y="388" fill="#C9A8FF" font-size="9" font-weight="700" letter-spacing="2">L4 · NOV 2025</text>
    <text x="980" y="406" fill="#F0EAE0" font-size="12" font-weight="600">Square Lightning POS</text>
    <text x="980" y="421" fill="#B4BCC8" font-size="10">~4M US merchants · rollout</text>
  </g>

  <!-- Dec 2025: Taproot Assets v0.7 -->
  <g>
    <line x1="1155" y1="650" x2="1155" y2="540" stroke="#FFA94D" stroke-width="1.2" stroke-dasharray="3,3" opacity="0.6"/>
    <circle cx="1155" cy="540" r="7" fill="#FFA94D"/>
    <rect x="1075" y="650" width="190" height="58" rx="8" fill="#141A22" stroke="#FFA94D" stroke-width="1.2"/>
    <text x="1085" y="668" fill="#FFA94D" font-size="9" font-weight="700" letter-spacing="2">L1 · DEC 2025</text>
    <text x="1085" y="686" fill="#F0EAE0" font-size="12" font-weight="600">Taproot Assets v0.7</text>
    <text x="1085" y="701" fill="#B4BCC8" font-size="10">Production stablecoin ready</text>
  </g>

  <!-- Jan 27 2026: Citrea mainnet -->
  <g>
    <line x1="1255" y1="430" x2="1255" y2="540" stroke="#B084FF" stroke-width="1.5" stroke-dasharray="3,3" opacity="0.7"/>
    <circle cx="1255" cy="540" r="9" fill="#B084FF" stroke="#0B0F14" stroke-width="2"/>
    <rect x="1175" y="320" width="200" height="108" rx="8" fill="#141A22" stroke="#B084FF" stroke-width="2"/>
    <text x="1185" y="338" fill="#B084FF" font-size="9" font-weight="700" letter-spacing="2">L3 · JAN 27 · 2026</text>
    <text x="1185" y="358" fill="#F0EAE0" font-size="13" font-weight="700">Citrea mainnet</text>
    <text x="1185" y="376" fill="#B4BCC8" font-size="10">First ZK-rollup on Bitcoin</text>
    <text x="1185" y="392" fill="#B4BCC8" font-size="10">Type-2 zkEVM · BitVM bridge</text>
    <text x="1185" y="411" fill="#FFA94D" font-size="10" font-weight="600">+ ctUSD stablecoin (M0)</text>
  </g>

  <!-- Mar 18 2026: Boltz USDT swaps -->
  <g>
    <line x1="1355" y1="700" x2="1355" y2="540" stroke="#C9A8FF" stroke-width="1.5" stroke-dasharray="3,3" opacity="0.7"/>
    <circle cx="1355" cy="540" r="9" fill="#C9A8FF" stroke="#0B0F14" stroke-width="2"/>
    <rect x="1275" y="700" width="200" height="108" rx="8" fill="#141A22" stroke="#C9A8FF" stroke-width="2"/>
    <text x="1285" y="718" fill="#C9A8FF" font-size="9" font-weight="700" letter-spacing="2">L4 · MAR 18 · 2026</text>
    <text x="1285" y="738" fill="#F0EAE0" font-size="13" font-weight="700">Boltz USDT swaps</text>
    <text x="1285" y="756" fill="#B4BCC8" font-size="10">Non-custodial · no KYC</text>
    <text x="1285" y="772" fill="#B4BCC8" font-size="10">tBTC + LayerZero OFT route</text>
    <text x="1285" y="791" fill="#FFA94D" font-size="10" font-weight="600">+ USDC via CCTP (Apr)</text>
  </g>

  <!-- Mar 21 2026: USDT on Lightning -->
  <g>
    <line x1="1430" y1="430" x2="1430" y2="540" stroke="#5BA3FF" stroke-width="1.5" stroke-dasharray="3,3" opacity="0.7"/>
    <circle cx="1430" cy="540" r="9" fill="#5BA3FF" stroke="#0B0F14" stroke-width="2"/>
    <rect x="1380" y="320" width="200" height="108" rx="8" fill="#141A22" stroke="#5BA3FF" stroke-width="2"/>
    <text x="1390" y="338" fill="#5BA3FF" font-size="9" font-weight="700" letter-spacing="2">L1/L2 · MAR 21 · 2026</text>
    <text x="1390" y="358" fill="#F0EAE0" font-size="13" font-weight="700">USDT live on Lightning</text>
    <text x="1390" y="376" fill="#B4BCC8" font-size="10">Taproot Assets v0.7</text>
    <text x="1390" y="392" fill="#B4BCC8" font-size="10">Ardoino · 14-mo integration</text>
    <text x="1390" y="411" fill="#FFA94D" font-size="10" font-weight="600">Stablecoins enter Lightning</text>
  </g>

  <!-- Mar 30 2026: CTV deployment params -->
  <g>
    <line x1="1525" y1="700" x2="1525" y2="540" stroke="#F7931A" stroke-width="1.2" stroke-dasharray="3,3" opacity="0.6"/>
    <circle cx="1525" cy="540" r="7" fill="#F7931A"/>
    <rect x="1450" y="700" width="190" height="58" rx="8" fill="#141A22" stroke="#F7931A" stroke-width="1.2"/>
    <text x="1460" y="718" fill="#F7931A" font-size="9" font-weight="700" letter-spacing="2">L0 · MAR 30 · 2026</text>
    <text x="1460" y="736" fill="#F0EAE0" font-size="12" font-weight="600">CTV params start</text>
    <text x="1460" y="751" fill="#B4BCC8" font-size="10">Speedy-Trial · 90% signal</text>
  </g>

  <!-- Mar 2026: Arkade beta -->
  <g>
    <line x1="1595" y1="430" x2="1595" y2="540" stroke="#5BA3FF" stroke-width="1.2" stroke-dasharray="3,3" opacity="0.6"/>
    <circle cx="1595" cy="540" r="7" fill="#5BA3FF"/>
    <rect x="1505" y="370" width="200" height="58" rx="8" fill="#141A22" stroke="#5BA3FF" stroke-width="1.2"/>
    <text x="1515" y="388" fill="#5BA3FF" font-size="9" font-weight="700" letter-spacing="2">L2 · MAR 2026</text>
    <text x="1515" y="406" fill="#F0EAE0" font-size="12" font-weight="600">Arkade public beta</text>
    <text x="1515" y="421" fill="#B4BCC8" font-size="10">Ark Labs · $5.2M Tether</text>
  </g>

  <!-- Future band -->
  <g>
    <rect x="1660" y="510" width="80" height="60" rx="6" fill="rgba(247,147,26,0.06)" stroke="#F7931A" stroke-width="1" stroke-dasharray="4,3"/>
    <text x="1700" y="535" text-anchor="middle" fill="#F7931A" font-size="10" font-weight="600" letter-spacing="2">FUTURE</text>
    <text x="1700" y="555" text-anchor="middle" fill="#B4BCC8" font-size="9">Covenant vote</text>
    <text x="1700" y="568" text-anchor="middle" fill="#B4BCC8" font-size="9">·Drivechain fork</text>
  </g>

  <!-- Bottom band: thesis -->
  <rect x="100" y="850" width="1600" height="100" rx="12" fill="#141A22" stroke="#F7931A" stroke-width="1.2"/>
  <text x="120" y="880" fill="#F7931A" font-size="11" font-weight="700" letter-spacing="3">WHAT THIS TIMELINE SHOWS</text>
  <text x="120" y="907" fill="#F0EAE0" font-size="14">The Bitcoin stack matured fastest in Q1 2026. Five of the six load-bearing pieces — ZK-rollup, non-custodial stablecoin swaps,</text>
  <text x="120" y="927" fill="#F0EAE0" font-size="14">native USDT on Lightning, EVM L2 mainnet, and Ark — went live or hit milestone scale within twelve months of each other.</text>
</svg>
